# xmcd
#
# Track frame offsets:
#	150
#	15144
#	29452
#	43335
#	59691
#	82403
#	100872
#	122315
#	136414
#	156384
#
# Disc length: 2319 seconds
#
# Revision: 0
# Processed by: cddbd v1.5.1PL0 Copyright (c) Steve Scherf et al.
# Submitted via: dBpowerAMP V4.0
#
DISCID=84090d0a
DTITLE=The Ozark Mountain Daredevils - The Ozark Mountain Dare Devils
DYEAR=1973
DGENRE=Country Rock
TTITLE0=Country Girl
TTITLE1=Spaceship Orion
TTITLE2=If You Wanna Get To Heaven
TTITLE3=Chicken Train
TTITLE4=Colorado Song
TTITLE5=Standing On The Rock
TTITLE6=Road To Glory
TTITLE7=Black Sky
TTITLE8=Within Without
TTITLE9=Beauty In The River
EXTD=
EXTT0=
EXTT1=
EXTT2=
EXTT3=
EXTT4=
EXTT5=
EXTT6=
EXTT7=
EXTT8=
EXTT9=
PLAYORDER=
